<svg xmlns="http://www.w3.org/2000/svg" xmlns:xlink="http://www.w3.org/1999/xlink" width="500" zoomAndPan="magnify" viewBox="0 0 375 374.999991" height="500" preserveAspectRatio="xMidYMid meet" version="1.0"><defs><g/><clipPath id="ad00234e9e"><rect x="0" width="237" y="0" height="139"/></clipPath><clipPath id="e6b116c915"><path d="M 185 95 L 248 95 L 248 165 L 185 165 Z M 185 95 " clip-rule="nonzero"/></clipPath><clipPath id="dd6c41f7dd"><path d="M 215.515625 64.535156 L 278.707031 140.746094 L 236.558594 175.691406 L 173.371094 99.480469 Z M 215.515625 64.535156 " clip-rule="nonzero"/></clipPath><clipPath id="f65ad346ad"><path d="M 215.515625 64.535156 L 278.707031 140.746094 L 236.558594 175.691406 L 173.371094 99.480469 Z M 215.515625 64.535156 " clip-rule="nonzero"/></clipPath><clipPath id="38106bc75c"><path d="M 185 94 L 249 94 L 249 165 L 185 165 Z M 185 94 " clip-rule="nonzero"/></clipPath><clipPath id="5bb3365fc8"><path d="M 215.515625 64.535156 L 278.707031 140.746094 L 236.558594 175.691406 L 173.371094 99.480469 Z M 215.515625 64.535156 " clip-rule="nonzero"/></clipPath><clipPath id="40506dc974"><path d="M 215.515625 64.535156 L 278.707031 140.746094 L 236.558594 175.691406 L 173.371094 99.480469 Z M 215.515625 64.535156 " clip-rule="nonzero"/></clipPath><clipPath id="d34726f247"><path d="M 240 118 L 321 118 L 321 166 L 240 166 Z M 240 118 " clip-rule="nonzero"/></clipPath><clipPath id="a3ba397ca0"><path d="M 218.160156 124.835938 L 311.800781 92.699219 L 329.574219 144.484375 L 235.933594 176.621094 Z M 218.160156 124.835938 " clip-rule="nonzero"/></clipPath><clipPath id="7328218c67"><path d="M 218.160156 124.835938 L 311.800781 92.699219 L 329.574219 144.484375 L 235.933594 176.621094 Z M 218.160156 124.835938 " clip-rule="nonzero"/></clipPath><clipPath id="1bcd75dd4f"><path d="M 239 117 L 321 117 L 321 166 L 239 166 Z M 239 117 " clip-rule="nonzero"/></clipPath><clipPath id="023bbe0822"><path d="M 218.160156 124.835938 L 311.800781 92.699219 L 329.574219 144.484375 L 235.933594 176.621094 Z M 218.160156 124.835938 " clip-rule="nonzero"/></clipPath><clipPath id="8969d08551"><path d="M 218.160156 124.835938 L 311.800781 92.699219 L 329.574219 144.484375 L 235.933594 176.621094 Z M 218.160156 124.835938 " clip-rule="nonzero"/></clipPath><clipPath id="a21d8b4344"><path d="M 156 124 L 240 124 L 240 166 L 156 166 Z M 156 124 " clip-rule="nonzero"/></clipPath><clipPath id="8586f271be"><path d="M 156.859375 103.625 L 254.183594 121.773438 L 244.148438 175.59375 L 146.824219 157.449219 Z M 156.859375 103.625 " clip-rule="nonzero"/></clipPath><clipPath id="ffcc6c95d7"><path d="M 156.859375 103.625 L 254.183594 121.773438 L 244.148438 175.59375 L 146.824219 157.449219 Z M 156.859375 103.625 " clip-rule="nonzero"/></clipPath><clipPath id="158884e11a"><path d="M 156 123 L 240 123 L 240 166 L 156 166 Z M 156 123 " clip-rule="nonzero"/></clipPath><clipPath id="1da01e13e2"><path d="M 156.859375 103.625 L 254.183594 121.773438 L 244.148438 175.59375 L 146.824219 157.449219 Z M 156.859375 103.625 " clip-rule="nonzero"/></clipPath><clipPath id="05a35d0542"><path d="M 156.859375 103.625 L 254.183594 121.773438 L 244.148438 175.59375 L 146.824219 157.449219 Z M 156.859375 103.625 " clip-rule="nonzero"/></clipPath><clipPath id="9239dcf135"><rect x="0" width="102" y="0" height="85"/></clipPath><clipPath id="301a7dc9ec"><rect x="0" width="40" y="0" height="49"/></clipPath></defs><rect x="-37.5" width="450" fill="#ffffff" y="-37.499999" height="449.999989" fill-opacity="1"/><rect x="-37.5" width="450" fill="#39962c" y="-37.499999" height="449.999989" fill-opacity="1"/><g transform="matrix(1, 0, 0, 1, 50, 159)"><g clip-path="url(#ad00234e9e)"><g fill="#ffffff" fill-opacity="1"><g transform="translate(1.478653, 104.055116)"><g><path d="M 41.453125 -97.234375 C 41.734375 -96.691406 41.53125 -96.328125 40.84375 -96.140625 C 40.15625 -95.953125 39.347656 -95.859375 38.421875 -95.859375 C 37.503906 -95.859375 36.703125 -95.859375 36.015625 -95.859375 C 35.328125 -95.859375 35.03125 -95.769531 35.125 -95.59375 C 32.1875 -95.59375 29.269531 -95.546875 26.375 -95.453125 C 23.476562 -95.359375 20.65625 -95.679688 17.90625 -96.421875 C 16.625 -96.234375 15.890625 -95.609375 15.703125 -94.546875 C 15.515625 -93.492188 15.554688 -92.300781 15.828125 -90.96875 C 16.109375 -89.632812 16.25 -88.46875 16.25 -87.46875 C 16.4375 -81.769531 16.710938 -76.097656 17.078125 -70.453125 C 17.441406 -64.804688 17.71875 -59.132812 17.90625 -53.4375 C 18.914062 -52.15625 20.175781 -51.695312 21.6875 -52.0625 C 23.207031 -52.425781 24.609375 -52.609375 25.890625 -52.609375 C 27.640625 -53.347656 29.335938 -53.488281 30.984375 -53.03125 C 32.640625 -52.570312 34.34375 -52.25 36.09375 -52.0625 C 36.09375 -51.414062 36.066406 -50.769531 36.015625 -50.125 C 35.972656 -49.488281 35.582031 -48.988281 34.84375 -48.625 C 32.1875 -48.4375 29.5 -48.390625 26.78125 -48.484375 C 24.070312 -48.578125 21.390625 -48.53125 18.734375 -48.34375 C 18.367188 -44.945312 18.484375 -41.457031 19.078125 -37.875 C 19.671875 -34.289062 19.601562 -30.753906 18.875 -27.265625 C 18.5 -24.328125 18.425781 -21.25 18.65625 -18.03125 C 18.882812 -14.820312 18.816406 -11.703125 18.453125 -8.671875 C 18.085938 -5.640625 16.847656 -2.882812 14.734375 -0.40625 C 12.617188 0.226562 10.710938 0.0390625 9.015625 -0.96875 C 7.316406 -1.976562 6.03125 -3.421875 5.15625 -5.296875 C 4.289062 -7.179688 4.039062 -9.039062 4.40625 -10.875 C 5.144531 -16.207031 5.398438 -21.625 5.171875 -27.125 C 4.941406 -32.632812 5.191406 -38.054688 5.921875 -43.390625 C 4.910156 -51.648438 4.378906 -59.84375 4.328125 -67.96875 C 4.285156 -76.09375 4.3125 -84.332031 4.40625 -92.6875 C 3.945312 -94.25 4.015625 -95.765625 4.609375 -97.234375 C 5.210938 -98.703125 6.15625 -99.941406 7.4375 -100.953125 C 11.75 -100.773438 16.039062 -100.707031 20.3125 -100.75 C 24.582031 -100.800781 28.875 -100.6875 33.1875 -100.40625 C 34.65625 -100.039062 36.191406 -99.765625 37.796875 -99.578125 C 39.410156 -99.398438 40.628906 -98.617188 41.453125 -97.234375 Z M 41.453125 -97.234375 "/></g></g></g><g fill="#ffffff" fill-opacity="1"><g transform="translate(47.20389, 104.055116)"><g><path d="M 21.625 -7.84375 C 22.351562 -5.738281 22.097656 -4.039062 20.859375 -2.75 C 19.617188 -1.46875 17.96875 -0.640625 15.90625 -0.265625 C 13.84375 0.0976562 11.984375 0.0507812 10.328125 -0.40625 C 9.046875 -1.507812 8.632812 -2.796875 9.09375 -4.265625 C 9.550781 -5.734375 9.867188 -7.296875 10.046875 -8.953125 C 9.046875 -15.015625 8.5 -21.050781 8.40625 -27.0625 C 8.3125 -33.082031 8.035156 -39.117188 7.578125 -45.171875 C 8.222656 -51.328125 8.195312 -57.503906 7.5 -63.703125 C 6.8125 -69.898438 6.078125 -76.097656 5.296875 -82.296875 C 4.515625 -88.492188 4.171875 -94.671875 4.265625 -100.828125 C 8.859375 -101.367188 13.082031 -100.3125 16.9375 -97.65625 C 17.125 -82.59375 17.765625 -67.597656 18.859375 -52.671875 C 19.960938 -37.753906 20.882812 -22.8125 21.625 -7.84375 Z M 21.625 -7.84375 "/></g></g></g><g fill="#ffffff" fill-opacity="1"><g transform="translate(73.371956, 104.055116)"><g><path d="M 52.0625 -31.546875 C 52.25 -28.054688 51.878906 -24.585938 50.953125 -21.140625 C 50.035156 -17.703125 48.335938 -14.695312 45.859375 -12.125 C 45.128906 -11.476562 44.601562 -10.695312 44.28125 -9.78125 C 43.957031 -8.863281 43.429688 -8.082031 42.703125 -7.4375 C 39.390625 -4.5 35.53125 -2.410156 31.125 -1.171875 C 26.71875 0.0664062 22.285156 0.320312 17.828125 -0.40625 C 13.378906 -1.144531 9.410156 -2.984375 5.921875 -5.921875 C 4.816406 -8.765625 4.238281 -11.675781 4.1875 -14.65625 C 4.144531 -17.644531 4.332031 -20.628906 4.75 -23.609375 C 5.164062 -26.597656 5.460938 -29.609375 5.640625 -32.640625 C 5.828125 -35.671875 5.597656 -38.65625 4.953125 -41.59375 C 6.242188 -50.863281 7.023438 -60.132812 7.296875 -69.40625 C 7.578125 -78.6875 8.359375 -87.921875 9.640625 -97.109375 C 10.003906 -98.578125 10.691406 -99.859375 11.703125 -100.953125 C 15.378906 -100.492188 19.164062 -100.242188 23.0625 -100.203125 C 26.96875 -100.160156 30.753906 -99.75 34.421875 -98.96875 C 38.097656 -98.1875 41.363281 -96.460938 44.21875 -93.796875 C 46.144531 -92.140625 47.453125 -90.207031 48.140625 -88 C 48.828125 -85.800781 49.191406 -83.507812 49.234375 -81.125 C 49.285156 -78.738281 49.21875 -76.394531 49.03125 -74.09375 C 48.113281 -73 47.492188 -71.757812 47.171875 -70.375 C 46.847656 -69 46.503906 -67.625 46.140625 -66.25 C 44.578125 -63.957031 42.757812 -61.84375 40.6875 -59.90625 C 38.625 -57.976562 37 -55.820312 35.8125 -53.4375 C 37.375 -52.519531 38.957031 -51.757812 40.5625 -51.15625 C 42.164062 -50.5625 43.75 -49.898438 45.3125 -49.171875 C 47.519531 -46.691406 49.445312 -44.078125 51.09375 -41.328125 C 51.28125 -40.128906 51.441406 -38.519531 51.578125 -36.5 C 51.710938 -34.476562 51.875 -32.828125 52.0625 -31.546875 Z M 38.296875 -29.609375 C 38.472656 -32.921875 37.53125 -35.628906 35.46875 -37.734375 C 33.40625 -39.847656 30.898438 -41.5 27.953125 -42.6875 C 25.015625 -43.882812 22.21875 -44.804688 19.5625 -45.453125 C 19.101562 -44.347656 18.78125 -42.578125 18.59375 -40.140625 C 18.40625 -37.710938 18.289062 -34.984375 18.25 -31.953125 C 18.207031 -28.921875 18.207031 -25.867188 18.25 -22.796875 C 18.289062 -19.722656 18.332031 -16.945312 18.375 -14.46875 C 18.425781 -11.988281 18.453125 -10.101562 18.453125 -8.8125 C 19.828125 -6.976562 21.753906 -5.945312 24.234375 -5.71875 C 26.710938 -5.488281 28.875 -5.878906 30.71875 -6.890625 C 33.925781 -9.734375 36.148438 -13.195312 37.390625 -17.28125 C 38.628906 -21.375 38.929688 -25.484375 38.296875 -29.609375 Z M 34.4375 -85.125 C 34.0625 -87.414062 33.117188 -89.457031 31.609375 -91.25 C 30.097656 -93.039062 28.257812 -94.328125 26.09375 -95.109375 C 23.9375 -95.890625 21.710938 -95.910156 19.421875 -95.171875 C 19.328125 -88.285156 19.28125 -81.46875 19.28125 -74.71875 C 19.28125 -67.96875 19.28125 -61.148438 19.28125 -54.265625 C 21.207031 -54.816406 22.628906 -55.941406 23.546875 -57.640625 C 24.472656 -59.335938 25.757812 -60.738281 27.40625 -61.84375 C 30.800781 -64.6875 33.097656 -68.195312 34.296875 -72.375 C 35.492188 -76.550781 35.539062 -80.800781 34.4375 -85.125 Z M 34.4375 -85.125 "/></g></g></g><g fill="#ffffff" fill-opacity="1"><g transform="translate(129.702136, 104.055116)"><g><path d="M 44.21875 -3.578125 C 42.65625 -2.109375 40.75 -1.234375 38.5 -0.953125 C 36.25 -0.679688 33.925781 -0.660156 31.53125 -0.890625 C 29.144531 -1.117188 26.898438 -1.144531 24.796875 -0.96875 C 22.679688 -0.59375 20.40625 -0.289062 17.96875 -0.0625 C 15.539062 0.164062 13.203125 0.00390625 10.953125 -0.546875 C 8.703125 -1.097656 6.84375 -2.335938 5.375 -4.265625 C 4.726562 -6.191406 4.492188 -8.050781 4.671875 -9.84375 C 4.859375 -11.632812 5.160156 -13.425781 5.578125 -15.21875 C 5.992188 -17.007812 6.203125 -18.820312 6.203125 -20.65625 C 6.378906 -27.820312 6.210938 -34.9375 5.703125 -42 C 5.203125 -49.070312 4.863281 -56.191406 4.6875 -63.359375 C 5.238281 -65.191406 5.238281 -67.023438 4.6875 -68.859375 C 4.132812 -70.703125 4.039062 -72.539062 4.40625 -74.375 C 5.144531 -77.863281 5.421875 -81.421875 5.234375 -85.046875 C 5.046875 -88.671875 5.046875 -92.273438 5.234375 -95.859375 C 5.503906 -96.597656 5.6875 -97.359375 5.78125 -98.140625 C 5.875 -98.921875 6.285156 -99.582031 7.015625 -100.125 C 7.753906 -100.675781 9.132812 -100.953125 11.15625 -100.953125 C 15.65625 -100.953125 20.195312 -101.132812 24.78125 -101.5 C 29.375 -101.875 33.878906 -101.234375 38.296875 -99.578125 C 37.367188 -97.378906 36.054688 -96.050781 34.359375 -95.59375 C 32.660156 -95.132812 30.800781 -95.0625 28.78125 -95.375 C 26.757812 -95.695312 24.71875 -95.925781 22.65625 -96.0625 C 20.59375 -96.207031 18.734375 -95.726562 17.078125 -94.625 C 16.710938 -92.875 16.664062 -91.082031 16.9375 -89.25 C 17.21875 -87.414062 17.472656 -85.578125 17.703125 -83.734375 C 17.929688 -81.898438 17.769531 -80.066406 17.21875 -78.234375 C 17.40625 -74.003906 17.703125 -69.800781 18.109375 -65.625 C 18.523438 -61.445312 18.820312 -57.25 19 -53.03125 C 20.101562 -52.113281 21.4375 -51.882812 23 -52.34375 C 24.5625 -52.800781 25.894531 -53.488281 27 -54.40625 C 28.101562 -54.21875 29.203125 -53.941406 30.296875 -53.578125 C 31.398438 -53.210938 32.503906 -52.890625 33.609375 -52.609375 C 32.691406 -51.046875 31.453125 -50.035156 29.890625 -49.578125 C 28.328125 -49.117188 26.695312 -48.910156 25 -48.953125 C 23.300781 -49.003906 21.671875 -48.941406 20.109375 -48.765625 C 18.828125 -48.023438 18.320312 -46.894531 18.59375 -45.375 C 18.863281 -43.863281 19 -42.46875 19 -41.1875 C 19.28125 -36.5 19.441406 -31.789062 19.484375 -27.0625 C 19.535156 -22.332031 19.332031 -17.582031 18.875 -12.8125 C 19.238281 -12.445312 19.328125 -11.644531 19.140625 -10.40625 C 18.960938 -9.164062 18.914062 -7.96875 19 -6.8125 C 19.09375 -5.664062 19.738281 -5.09375 20.9375 -5.09375 C 24.0625 -5.738281 27.273438 -6.015625 30.578125 -5.921875 C 33.878906 -5.828125 37.140625 -6.195312 40.359375 -7.03125 C 41.085938 -7.03125 41.773438 -6.5 42.421875 -5.4375 C 43.066406 -4.382812 43.664062 -3.765625 44.21875 -3.578125 Z M 44.21875 -3.578125 "/></g></g></g><g fill="#ffffff" fill-opacity="1"><g transform="translate(178.044186, 104.055116)"><g><path d="M 52.203125 -7.71875 C 52.847656 -6.332031 52.960938 -5.296875 52.546875 -4.609375 C 52.128906 -3.921875 51.597656 -3.28125 50.953125 -2.6875 C 50.316406 -2.09375 49.859375 -1.195312 49.578125 0 C 46.828125 0.738281 44.625 0.804688 42.96875 0.203125 C 41.320312 -0.386719 40.035156 -1.648438 39.109375 -3.578125 C 39.109375 -5.960938 38.878906 -7.910156 38.421875 -9.421875 C 37.960938 -10.941406 37.550781 -12.4375 37.1875 -13.90625 C 36.082031 -17.03125 35.09375 -20.175781 34.21875 -23.34375 C 33.351562 -26.507812 31.910156 -29.425781 29.890625 -32.09375 C 28.515625 -32.1875 27.09375 -32.046875 25.625 -31.671875 C 24.15625 -31.304688 22.773438 -31.445312 21.484375 -32.09375 C 21.484375 -28.601562 21.484375 -25.066406 21.484375 -21.484375 C 21.484375 -17.898438 21.804688 -14.363281 22.453125 -10.875 C 22.816406 -8.945312 22.5625 -7.132812 21.6875 -5.4375 C 20.820312 -3.738281 20.019531 -2.0625 19.28125 -0.40625 C 18.09375 -0.226562 16.671875 -0.140625 15.015625 -0.140625 C 13.359375 -0.140625 11.910156 -0.503906 10.671875 -1.234375 C 9.429688 -1.972656 8.722656 -3.171875 8.546875 -4.828125 C 8.171875 -15.472656 7.382812 -26.164062 6.1875 -36.90625 C 5 -47.65625 4.5 -58.398438 4.6875 -69.140625 C 3.945312 -74.097656 3.875 -79.078125 4.46875 -84.078125 C 5.070312 -89.085938 5.28125 -94.117188 5.09375 -99.171875 C 5.832031 -99.347656 6.660156 -99.4375 7.578125 -99.4375 C 8.492188 -99.4375 9.046875 -99.941406 9.234375 -100.953125 C 13.734375 -100.773438 18.273438 -100.476562 22.859375 -100.0625 C 27.453125 -99.644531 31.863281 -98.429688 36.09375 -96.421875 C 40.40625 -94.941406 43.660156 -92.390625 45.859375 -88.765625 C 48.066406 -85.140625 49.332031 -81.097656 49.65625 -76.640625 C 49.976562 -72.191406 49.445312 -67.992188 48.0625 -64.046875 C 46.78125 -60.742188 45.378906 -57.484375 43.859375 -54.265625 C 42.347656 -51.054688 40.304688 -48.117188 37.734375 -45.453125 C 36.722656 -44.804688 35.847656 -44 35.109375 -43.03125 C 34.378906 -42.070312 33.738281 -41.085938 33.1875 -40.078125 C 33.375 -39.160156 34.0625 -38.585938 35.25 -38.359375 C 36.445312 -38.128906 37.320312 -37.644531 37.875 -36.90625 C 40.71875 -34.519531 42.988281 -31.71875 44.6875 -28.5 C 46.394531 -25.289062 47.820312 -21.894531 48.96875 -18.3125 C 50.113281 -14.738281 51.191406 -11.207031 52.203125 -7.71875 Z M 35.671875 -81.53125 C 34.660156 -85.757812 32.820312 -89.390625 30.15625 -92.421875 C 28.507812 -93.984375 26.535156 -94.738281 24.234375 -94.6875 C 21.941406 -94.644531 19.832031 -94.210938 17.90625 -93.390625 C 18.820312 -89.523438 19.097656 -85.664062 18.734375 -81.8125 C 18.367188 -77.957031 18.644531 -74.101562 19.5625 -70.25 C 20.289062 -66.300781 20.585938 -62.234375 20.453125 -58.046875 C 20.316406 -53.867188 20.707031 -49.851562 21.625 -46 C 22.632812 -45.90625 23.320312 -46.25 23.6875 -47.03125 C 24.050781 -47.8125 24.554688 -48.476562 25.203125 -49.03125 C 29.703125 -53.070312 32.800781 -58.03125 34.5 -63.90625 C 36.195312 -69.78125 36.585938 -75.65625 35.671875 -81.53125 Z M 35.671875 -81.53125 "/></g></g></g></g></g><g clip-path="url(#e6b116c915)"><g clip-path="url(#dd6c41f7dd)"><g clip-path="url(#f65ad346ad)"><path fill="#ffffff" d="M 210.625 106.140625 C 211.089844 106.695312 208.550781 109.628906 204.316406 113.632812 C 208.550781 117.507812 212.671875 121.777344 216.617188 126.40625 C 222.660156 121.832031 227.175781 119.035156 227.71875 119.6875 C 228.261719 120.34375 224.679688 124.269531 219.0625 129.351562 C 222.882812 134.085938 226.316406 138.933594 229.335938 143.808594 C 234.058594 140.386719 237.40625 138.4375 237.867188 138.996094 C 238.34375 139.570312 235.636719 142.667969 231.164062 146.859375 C 234.691406 152.90625 237.59375 158.976562 239.835938 164.921875 C 250.753906 148.640625 250.464844 126.863281 237.667969 111.429688 C 224.875 95.996094 203.53125 91.679688 185.503906 99.394531 C 190.933594 102.699219 196.363281 106.675781 201.648438 111.261719 C 206.605469 107.652344 210.148438 105.5625 210.625 106.140625 Z M 210.625 106.140625 " fill-opacity="1" fill-rule="nonzero"/></g></g></g><g clip-path="url(#38106bc75c)"><g clip-path="url(#5bb3365fc8)"><g clip-path="url(#40506dc974)"><path fill="#ffffff" d="M 239.84375 164.933594 C 244.671875 156.660156 247.074219 147.164062 246.53125 137.835938 C 246.007812 128.515625 242.519531 119.460938 236.570312 112.355469 C 230.6875 105.199219 222.433594 100.09375 213.375 97.851562 C 204.308594 95.59375 194.535156 96.191406 185.507812 99.398438 C 194.066406 95.070312 204.25 93.695312 213.863281 95.664062 C 218.679688 96.609375 223.324219 98.4375 227.574219 100.9375 C 231.8125 103.46875 235.601562 106.742188 238.773438 110.523438 C 241.902344 114.347656 244.417969 118.679688 246.113281 123.308594 C 247.789062 127.945312 248.71875 132.851562 248.757812 137.757812 C 248.917969 147.570312 245.683594 157.324219 239.84375 164.933594 Z M 239.84375 164.933594 " fill-opacity="1" fill-rule="nonzero"/></g></g></g><g clip-path="url(#d34726f247)"><g clip-path="url(#a3ba397ca0)"><g clip-path="url(#7328218c67)"><path fill="#ffffff" d="M 255.34375 144.128906 C 256.027344 143.894531 257.875 147.308594 260.121094 152.683594 C 265.242188 150.09375 270.695312 147.746094 276.421875 145.695312 C 274.28125 138.425781 273.261719 133.214844 274.066406 132.9375 C 274.871094 132.660156 277.273438 137.398438 280.042969 144.453125 C 285.820312 142.554688 291.570312 141.058594 297.199219 139.957031 C 295.667969 134.332031 295.03125 130.511719 295.714844 130.273438 C 296.421875 130.03125 298.359375 133.660156 300.699219 139.328125 C 307.601562 138.167969 314.308594 137.601562 320.660156 137.609375 C 309.296875 121.636719 288.828125 114.199219 269.863281 120.707031 C 250.898438 127.214844 239.308594 145.648438 240.148438 165.242188 C 245.160156 161.332031 250.800781 157.660156 256.960938 154.339844 C 255.335938 148.425781 254.636719 144.371094 255.34375 144.128906 Z M 255.34375 144.128906 " fill-opacity="1" fill-rule="nonzero"/></g></g></g><g clip-path="url(#1bcd75dd4f)"><g clip-path="url(#023bbe0822)"><g clip-path="url(#8969d08551)"><path fill="#ffffff" d="M 320.671875 137.605469 C 314.644531 130.160156 306.609375 124.554688 297.695312 121.761719 C 288.792969 118.953125 279.089844 119.011719 270.339844 122.0625 C 261.5625 125.03125 253.867188 130.945312 248.566406 138.628906 C 243.246094 146.308594 240.347656 155.660156 240.152344 165.238281 C 239.132812 155.699219 241.449219 145.691406 246.691406 137.394531 C 249.28125 133.226562 252.636719 129.53125 256.476562 126.4375 C 260.34375 123.367188 264.746094 120.984375 269.40625 119.351562 C 274.089844 117.78125 279.03125 116.960938 283.960938 117.011719 C 288.886719 117.089844 293.804688 117.949219 298.410156 119.652344 C 307.648438 122.972656 315.621094 129.449219 320.671875 137.605469 Z M 320.671875 137.605469 " fill-opacity="1" fill-rule="nonzero"/></g></g></g><g clip-path="url(#a21d8b4344)"><g clip-path="url(#8586f271be)"><g clip-path="url(#ffcc6c95d7)"><path fill="#ffffff" d="M 179.71875 138.730469 C 180.429688 138.863281 180.355469 142.742188 179.664062 148.527344 C 185.398438 148.792969 191.296875 149.4375 197.292969 150.476562 C 199.007812 143.09375 200.6875 138.054688 201.523438 138.210938 C 202.359375 138.367188 202.117188 143.671875 201.054688 151.175781 C 207.019531 152.371094 212.757812 153.898438 218.199219 155.710938 C 219.640625 150.0625 220.964844 146.421875 221.679688 146.554688 C 222.414062 146.691406 222.3125 150.804688 221.558594 156.886719 C 228.136719 159.277344 234.25 162.089844 239.777344 165.222656 C 237.75 145.722656 223.597656 129.171875 203.890625 125.496094 C 184.179688 121.820312 165.015625 132.15625 156.097656 149.617188 C 162.382812 148.6875 169.097656 148.269531 176.097656 148.410156 C 177.597656 142.464844 178.984375 138.59375 179.71875 138.730469 Z M 179.71875 138.730469 " fill-opacity="1" fill-rule="nonzero"/></g></g></g><g clip-path="url(#158884e11a)"><g clip-path="url(#1da01e13e2)"><g clip-path="url(#05a35d0542)"><path fill="#ffffff" d="M 239.789062 165.222656 C 238.207031 155.777344 233.976562 146.941406 227.59375 140.121094 C 221.230469 133.292969 212.753906 128.5625 203.636719 126.910156 C 194.535156 125.171875 184.925781 126.53125 176.53125 130.605469 C 168.117188 134.667969 160.988281 141.378906 156.101562 149.621094 C 159.910156 140.816406 166.855469 133.246094 175.503906 128.605469 C 179.8125 126.253906 184.550781 124.691406 189.417969 123.890625 C 194.292969 123.121094 199.300781 123.214844 204.15625 124.089844 C 209.007812 125.03125 213.710938 126.75 217.980469 129.222656 C 222.230469 131.714844 226.085938 134.890625 229.253906 138.636719 C 235.65625 146.074219 239.40625 155.640625 239.789062 165.222656 Z M 239.789062 165.222656 " fill-opacity="1" fill-rule="nonzero"/></g></g></g><g transform="matrix(1, 0, 0, 1, 52, 92)"><g clip-path="url(#9239dcf135)"><g fill="#ffffff" fill-opacity="1"><g transform="translate(0.895837, 62.890997)"><g><path d="M 26.5 -2.140625 C 25.5625 -1.265625 24.414062 -0.742188 23.0625 -0.578125 C 21.71875 -0.410156 20.328125 -0.394531 18.890625 -0.53125 C 17.460938 -0.675781 16.117188 -0.691406 14.859375 -0.578125 C 13.585938 -0.359375 12.222656 -0.175781 10.765625 -0.03125 C 9.304688 0.101562 7.90625 0.00390625 6.5625 -0.328125 C 5.21875 -0.660156 4.101562 -1.40625 3.21875 -2.5625 C 2.832031 -3.71875 2.691406 -4.832031 2.796875 -5.90625 C 2.910156 -6.976562 3.09375 -8.050781 3.34375 -9.125 C 3.59375 -10.195312 3.71875 -11.28125 3.71875 -12.375 C 3.820312 -16.664062 3.722656 -20.929688 3.421875 -25.171875 C 3.117188 -29.410156 2.914062 -33.675781 2.8125 -37.96875 C 3.132812 -39.0625 3.128906 -40.160156 2.796875 -41.265625 C 2.472656 -42.367188 2.421875 -43.46875 2.640625 -44.5625 C 3.078125 -46.65625 3.238281 -48.785156 3.125 -50.953125 C 3.019531 -53.128906 3.023438 -55.289062 3.140625 -57.4375 C 3.304688 -57.882812 3.414062 -58.335938 3.46875 -58.796875 C 3.519531 -59.265625 3.765625 -59.664062 4.203125 -60 C 4.648438 -60.332031 5.476562 -60.5 6.6875 -60.5 C 9.382812 -60.5 12.109375 -60.609375 14.859375 -60.828125 C 17.609375 -61.046875 20.300781 -60.660156 22.9375 -59.671875 C 22.394531 -58.347656 21.613281 -57.546875 20.59375 -57.265625 C 19.570312 -56.992188 18.457031 -56.953125 17.25 -57.140625 C 16.039062 -57.335938 14.816406 -57.476562 13.578125 -57.5625 C 12.335938 -57.644531 11.222656 -57.359375 10.234375 -56.703125 C 10.015625 -55.648438 9.988281 -54.570312 10.15625 -53.46875 C 10.320312 -52.375 10.472656 -51.273438 10.609375 -50.171875 C 10.742188 -49.078125 10.644531 -47.976562 10.3125 -46.875 C 10.425781 -44.34375 10.601562 -41.828125 10.84375 -39.328125 C 11.09375 -36.828125 11.273438 -34.3125 11.390625 -31.78125 C 12.046875 -31.226562 12.84375 -31.085938 13.78125 -31.359375 C 14.71875 -31.640625 15.515625 -32.050781 16.171875 -32.59375 C 16.835938 -32.488281 17.5 -32.328125 18.15625 -32.109375 C 18.8125 -31.890625 19.472656 -31.695312 20.140625 -31.53125 C 19.585938 -30.59375 18.84375 -29.984375 17.90625 -29.703125 C 16.96875 -29.429688 15.988281 -29.304688 14.96875 -29.328125 C 13.957031 -29.359375 12.984375 -29.320312 12.046875 -29.21875 C 11.273438 -28.78125 10.972656 -28.101562 11.140625 -27.1875 C 11.304688 -26.28125 11.390625 -25.441406 11.390625 -24.671875 C 11.554688 -21.867188 11.648438 -19.050781 11.671875 -16.21875 C 11.703125 -13.382812 11.582031 -10.535156 11.3125 -7.671875 C 11.53125 -7.453125 11.582031 -6.96875 11.46875 -6.21875 C 11.363281 -5.476562 11.335938 -4.765625 11.390625 -4.078125 C 11.441406 -3.390625 11.828125 -3.046875 12.546875 -3.046875 C 14.410156 -3.429688 16.332031 -3.597656 18.3125 -3.546875 C 20.300781 -3.492188 22.257812 -3.710938 24.1875 -4.203125 C 24.625 -4.203125 25.035156 -3.882812 25.421875 -3.25 C 25.804688 -2.625 26.164062 -2.253906 26.5 -2.140625 Z M 26.5 -2.140625 "/></g></g></g><g fill="#ffffff" fill-opacity="1"><g transform="translate(29.857347, 62.890997)"><g><path d="M 31.9375 -54.546875 C 31.71875 -54.273438 31.703125 -53.753906 31.890625 -52.984375 C 32.085938 -52.210938 32.195312 -51.507812 32.21875 -50.875 C 32.25 -50.25 31.851562 -49.960938 31.03125 -50.015625 C 30.425781 -49.960938 29.929688 -49.601562 29.546875 -48.9375 C 29.160156 -48.28125 28.773438 -47.757812 28.390625 -47.375 C 28.003906 -46.988281 27.484375 -47.070312 26.828125 -47.625 C 26.492188 -48.9375 25.992188 -50.1875 25.328125 -51.375 C 24.671875 -52.5625 23.820312 -53.617188 22.78125 -54.546875 C 21.894531 -54.441406 20.96875 -54.359375 20 -54.296875 C 19.039062 -54.242188 18.34375 -53.75 17.90625 -52.8125 C 17.519531 -51.550781 16.941406 -50.410156 16.171875 -49.390625 C 15.398438 -48.378906 14.742188 -47.265625 14.203125 -46.046875 C 12.878906 -43.578125 12.160156 -41.019531 12.046875 -38.375 C 11.941406 -35.738281 11.722656 -33.070312 11.390625 -30.375 C 11.273438 -26.957031 11.300781 -23.539062 11.46875 -20.125 C 11.632812 -16.71875 12.101562 -13.335938 12.875 -9.984375 C 13.257812 -9.046875 13.601562 -8.066406 13.90625 -7.046875 C 14.207031 -6.035156 14.742188 -5.171875 15.515625 -4.453125 C 17.160156 -3.960938 18.519531 -4.085938 19.59375 -4.828125 C 20.664062 -5.566406 21.570312 -6.582031 22.3125 -7.875 C 23.0625 -9.175781 23.765625 -10.375 24.421875 -11.46875 C 24.753906 -12.238281 25.265625 -12.71875 25.953125 -12.90625 C 26.640625 -13.101562 27.328125 -13.050781 28.015625 -12.75 C 28.703125 -12.445312 29.195312 -11.960938 29.5 -11.296875 C 29.800781 -10.640625 29.734375 -9.875 29.296875 -9 C 28.691406 -7.019531 27.644531 -5.257812 26.15625 -3.71875 C 24.675781 -2.175781 22.890625 -1.1875 20.796875 -0.75 C 19.472656 -0.6875 18.082031 -0.53125 16.625 -0.28125 C 15.164062 -0.0390625 13.75 0.0351562 12.375 -0.046875 C 11 -0.128906 9.734375 -0.632812 8.578125 -1.5625 C 6.984375 -2.832031 5.816406 -4.359375 5.078125 -6.140625 C 4.335938 -7.929688 3.609375 -9.707031 2.890625 -11.46875 C 2.722656 -16.363281 2.609375 -21.257812 2.546875 -26.15625 C 2.492188 -31.050781 2.96875 -35.921875 3.96875 -40.765625 C 4.957031 -43.078125 5.875 -45.441406 6.71875 -47.859375 C 7.570312 -50.285156 8.71875 -52.570312 10.15625 -54.71875 C 10.59375 -55.488281 11.332031 -56.351562 12.375 -57.3125 C 13.425781 -58.28125 14.640625 -59.09375 16.015625 -59.75 C 17.390625 -60.414062 18.765625 -60.664062 20.140625 -60.5 C 21.785156 -60.664062 23.445312 -60.566406 25.125 -60.203125 C 26.800781 -59.847656 28.269531 -59.21875 29.53125 -58.3125 C 30.800781 -57.40625 31.601562 -56.148438 31.9375 -54.546875 Z M 31.9375 -54.546875 "/></g></g></g><g fill="#ffffff" fill-opacity="1"><g transform="translate(64.594642, 62.890997)"><g><path d="M 32.765625 -38.796875 C 33.203125 -35.109375 33.488281 -31.390625 33.625 -27.640625 C 33.769531 -23.898438 33.566406 -20.160156 33.015625 -16.421875 C 33.285156 -15.484375 33.269531 -14.628906 32.96875 -13.859375 C 32.664062 -13.085938 32.347656 -12.332031 32.015625 -11.59375 C 31.691406 -10.851562 31.554688 -10.039062 31.609375 -9.15625 C 31.003906 -8.71875 30.519531 -8.164062 30.15625 -7.5 C 29.800781 -6.84375 29.460938 -6.1875 29.140625 -5.53125 C 27.703125 -3.769531 25.953125 -2.363281 23.890625 -1.3125 C 21.828125 -0.269531 19.640625 0.191406 17.328125 0.078125 C 15.296875 0.628906 13.398438 0.339844 11.640625 -0.78125 C 9.878906 -1.90625 8.363281 -3.160156 7.09375 -4.546875 C 5.445312 -7.066406 4.304688 -9.742188 3.671875 -12.578125 C 3.035156 -15.421875 2.691406 -18.328125 2.640625 -21.296875 C 2.585938 -24.265625 2.613281 -27.179688 2.71875 -30.046875 C 2.613281 -31.640625 2.738281 -33.21875 3.09375 -34.78125 C 3.445312 -36.351562 3.707031 -37.9375 3.875 -39.53125 C 4.207031 -43.164062 5.222656 -46.578125 6.921875 -49.765625 C 8.628906 -52.953125 10.554688 -55.953125 12.703125 -58.765625 C 13.085938 -59.585938 13.609375 -60.050781 14.265625 -60.15625 C 14.929688 -60.269531 15.632812 -60.3125 16.375 -60.28125 C 17.125 -60.257812 17.828125 -60.414062 18.484375 -60.75 C 20.242188 -59.8125 21.976562 -58.773438 23.6875 -57.640625 C 25.394531 -56.515625 26.90625 -55.179688 28.21875 -53.640625 C 29.21875 -51.222656 30.019531 -48.757812 30.625 -46.25 C 31.226562 -43.75 31.941406 -41.265625 32.765625 -38.796875 Z M 25.921875 -34 C 24.984375 -36.53125 24.320312 -39.101562 23.9375 -41.71875 C 23.550781 -44.332031 23.054688 -46.957031 22.453125 -49.59375 C 21.898438 -50.039062 21.363281 -50.59375 20.84375 -51.25 C 20.320312 -51.914062 19.769531 -52.492188 19.1875 -52.984375 C 18.613281 -53.484375 17.910156 -53.734375 17.078125 -53.734375 C 16.585938 -52.742188 16.160156 -51.722656 15.796875 -50.671875 C 15.441406 -49.628906 15.019531 -48.582031 14.53125 -47.53125 C 12.875 -40.875 12.070312 -33.957031 12.125 -26.78125 C 12.1875 -19.601562 13.535156 -12.765625 16.171875 -6.265625 C 16.773438 -5.722656 17.503906 -5.21875 18.359375 -4.75 C 19.210938 -4.28125 20.132812 -4.398438 21.125 -5.109375 C 22.113281 -5.554688 22.851562 -6.242188 23.34375 -7.171875 C 23.84375 -8.109375 24.394531 -8.992188 25 -9.828125 C 26.269531 -13.785156 26.835938 -17.800781 26.703125 -21.875 C 26.566406 -25.945312 26.304688 -29.988281 25.921875 -34 Z M 25.921875 -34 "/></g></g></g></g></g><g transform="matrix(1, 0, 0, 1, 285, 227)"><g clip-path="url(#301a7dc9ec)"><g fill="#ffffff" fill-opacity="1"><g transform="translate(1.384155, 35.732121)"><g><path d="M 17.203125 -10.421875 C 17.265625 -9.273438 17.144531 -8.128906 16.84375 -6.984375 C 16.539062 -5.847656 15.976562 -4.851562 15.15625 -4 C 14.914062 -3.789062 14.742188 -3.535156 14.640625 -3.234375 C 14.535156 -2.929688 14.359375 -2.671875 14.109375 -2.453125 C 13.015625 -1.484375 11.738281 -0.789062 10.28125 -0.375 C 8.832031 0.0273438 7.367188 0.113281 5.890625 -0.125 C 4.421875 -0.375 3.109375 -0.984375 1.953125 -1.953125 C 1.585938 -2.898438 1.394531 -3.863281 1.375 -4.84375 C 1.363281 -5.832031 1.425781 -6.816406 1.5625 -7.796875 C 1.707031 -8.785156 1.804688 -9.78125 1.859375 -10.78125 C 1.921875 -11.789062 1.847656 -12.78125 1.640625 -13.75 C 2.066406 -16.8125 2.320312 -19.875 2.40625 -22.9375 C 2.5 -26.007812 2.757812 -29.0625 3.1875 -32.09375 C 3.3125 -32.582031 3.539062 -33.007812 3.875 -33.375 C 5.082031 -33.21875 6.332031 -33.128906 7.625 -33.109375 C 8.914062 -33.097656 10.164062 -32.960938 11.375 -32.703125 C 12.59375 -32.453125 13.671875 -31.882812 14.609375 -31 C 15.253906 -30.457031 15.6875 -29.820312 15.90625 -29.09375 C 16.132812 -28.363281 16.253906 -27.601562 16.265625 -26.8125 C 16.285156 -26.03125 16.265625 -25.257812 16.203125 -24.5 C 15.898438 -24.132812 15.695312 -23.722656 15.59375 -23.265625 C 15.488281 -22.804688 15.375 -22.351562 15.25 -21.90625 C 14.738281 -21.144531 14.140625 -20.441406 13.453125 -19.796875 C 12.773438 -19.160156 12.238281 -18.453125 11.84375 -17.671875 C 12.351562 -17.359375 12.875 -17.101562 13.40625 -16.90625 C 13.9375 -16.71875 14.460938 -16.5 14.984375 -16.25 C 15.710938 -15.4375 16.347656 -14.570312 16.890625 -13.65625 C 16.953125 -13.257812 17.003906 -12.726562 17.046875 -12.0625 C 17.097656 -11.394531 17.148438 -10.847656 17.203125 -10.421875 Z M 12.65625 -9.796875 C 12.71875 -10.878906 12.40625 -11.769531 11.71875 -12.46875 C 11.039062 -13.164062 10.210938 -13.710938 9.234375 -14.109375 C 8.265625 -14.503906 7.34375 -14.8125 6.46875 -15.03125 C 6.3125 -14.664062 6.203125 -14.078125 6.140625 -13.265625 C 6.085938 -12.460938 6.050781 -11.5625 6.03125 -10.5625 C 6.019531 -9.5625 6.019531 -8.550781 6.03125 -7.53125 C 6.050781 -6.519531 6.066406 -5.601562 6.078125 -4.78125 C 6.085938 -3.957031 6.09375 -3.332031 6.09375 -2.90625 C 6.550781 -2.300781 7.191406 -1.960938 8.015625 -1.890625 C 8.835938 -1.816406 9.550781 -1.945312 10.15625 -2.28125 C 11.21875 -3.21875 11.953125 -4.359375 12.359375 -5.703125 C 12.765625 -7.054688 12.863281 -8.421875 12.65625 -9.796875 Z M 11.390625 -28.140625 C 11.265625 -28.898438 10.953125 -29.570312 10.453125 -30.15625 C 9.953125 -30.75 9.34375 -31.175781 8.625 -31.4375 C 7.914062 -31.695312 7.179688 -31.707031 6.421875 -31.46875 C 6.390625 -29.1875 6.375 -26.929688 6.375 -24.703125 C 6.375 -22.472656 6.375 -20.21875 6.375 -17.9375 C 7.007812 -18.125 7.476562 -18.492188 7.78125 -19.046875 C 8.082031 -19.609375 8.507812 -20.070312 9.0625 -20.4375 C 10.1875 -21.382812 10.941406 -22.546875 11.328125 -23.921875 C 11.722656 -25.304688 11.742188 -26.710938 11.390625 -28.140625 Z M 11.390625 -28.140625 "/></g></g></g><g fill="#ffffff" fill-opacity="1"><g transform="translate(20.006432, 35.732121)"><g><path d="M 16.15625 -18.21875 C 16.21875 -16.664062 16.210938 -15.113281 16.140625 -13.5625 C 16.066406 -12.019531 15.863281 -10.472656 15.53125 -8.921875 C 15.132812 -8.160156 14.804688 -7.363281 14.546875 -6.53125 C 14.285156 -5.695312 13.972656 -4.882812 13.609375 -4.09375 C 13.242188 -3.300781 12.710938 -2.617188 12.015625 -2.046875 C 11.234375 -1.203125 10.265625 -0.609375 9.109375 -0.265625 C 7.953125 0.0664062 6.796875 0.117188 5.640625 -0.109375 C 4.492188 -0.335938 3.492188 -0.863281 2.640625 -1.6875 C 2.273438 -2.164062 2 -3.070312 1.8125 -4.40625 C 1.632812 -5.75 1.515625 -7.289062 1.453125 -9.03125 C 1.390625 -10.78125 1.363281 -12.566406 1.375 -14.390625 C 1.394531 -16.210938 1.425781 -17.878906 1.46875 -19.390625 C 1.519531 -20.910156 1.5625 -22.082031 1.59375 -22.90625 C 1.800781 -24.539062 1.9375 -26.160156 2 -27.765625 C 2.0625 -29.378906 2.171875 -31.003906 2.328125 -32.640625 C 2.566406 -32.703125 2.84375 -32.734375 3.15625 -32.734375 C 3.476562 -32.734375 3.65625 -32.929688 3.6875 -33.328125 C 4.113281 -33.203125 4.566406 -33.144531 5.046875 -33.15625 C 5.535156 -33.175781 6.023438 -33.25 6.515625 -33.375 C 7.085938 -32.976562 7.660156 -32.5625 8.234375 -32.125 C 8.816406 -31.6875 9.410156 -31.300781 10.015625 -30.96875 C 10.617188 -30.207031 11.300781 -29.476562 12.0625 -28.78125 C 13.34375 -27.320312 14.253906 -25.664062 14.796875 -23.8125 C 15.347656 -21.957031 15.800781 -20.09375 16.15625 -18.21875 Z M 12.296875 -16.25 C 12.046875 -17.101562 11.835938 -17.960938 11.671875 -18.828125 C 11.503906 -19.691406 11.253906 -20.535156 10.921875 -21.359375 C 10.804688 -22.117188 10.539062 -22.800781 10.125 -23.40625 C 9.71875 -24.007812 9.453125 -24.675781 9.328125 -25.40625 C 8.328125 -26.863281 7.070312 -28.109375 5.5625 -29.140625 C 5.738281 -27.140625 5.867188 -25.132812 5.953125 -23.125 C 6.046875 -21.125 6.1875 -19.125 6.375 -17.125 C 6.5 -16.632812 6.519531 -16.144531 6.4375 -15.65625 C 6.363281 -15.175781 6.3125 -14.691406 6.28125 -14.203125 C 6.25 -13.722656 6.328125 -13.238281 6.515625 -12.75 C 6.453125 -11.132812 6.507812 -9.515625 6.6875 -7.890625 C 6.875 -6.273438 6.953125 -4.660156 6.921875 -3.046875 C 7.128906 -2.679688 7.394531 -2.453125 7.71875 -2.359375 C 8.039062 -2.273438 8.367188 -2.398438 8.703125 -2.734375 C 9.785156 -3.941406 10.59375 -5.304688 11.125 -6.828125 C 11.65625 -8.347656 12 -9.921875 12.15625 -11.546875 C 12.3125 -13.171875 12.359375 -14.738281 12.296875 -16.25 Z M 12.296875 -16.25 "/></g></g></g></g></g></svg>